<svg id="Layer_1" height="512" viewBox="0 0 512 512" width="512" xmlns="http://www.w3.org/2000/svg" data-name="Layer 1"><path d="m256 272-16 64-13-1.281-27 49.281h88v96h200v-166.67l16-43.33a30 30 0 0 0 -30-30h-188c-16.57 0-30 15.43-30 32z" fill="#4ba013"/><path d="m352 240v-40h48v40h24a48 48 0 0 1 -96 0z" fill="#ffc880"/><path d="m352 223.684v-23.684h48v27.638c-16.737 2.197-33.587-.185-48-3.954z" fill="#ea9734"/><path d="m456 48v100c0 33.137-30.119 60-62.335 60h-31.333c-32.216 0-58.332-26.863-58.332-60v-100z" fill="#ffc880"/><path d="m376 184a24.027 24.027 0 0 0 24-24h-16a8 8 0 0 1 -16 0h-16a24.027 24.027 0 0 0 24 24z" fill="#e84700"/><path d="m456 40v48l-88-32s-32 40-64 32c0 0-24-40-16-80l24 16s96-40 144 16z" fill="#f4bb03"/><path d="m320 344h-45.877a18.123 18.123 0 0 0 -18.123 18.123v3.754a18.123 18.123 0 0 0 18.123 18.123h45.877z" fill="#ffc880"/><path d="m312 480h152v32h-152z" fill="#e84700"/><path d="m312 344v56a8 8 0 0 0 8 8h136a8 8 0 0 0 7.5-5.23l24.5-66.35v-23.09l16-43.33-7.5-2.77-46.07 124.77h-122.43v-40h88a8 8 0 0 0 7.35-4.85l24-56-14.7-6.3-21.93 51.15h-90.72a8 8 0 0 0 -8 8z" fill="#398409"/><path d="m144 448c-79.4 0-144-64.6-144-144a144.234 144.234 0 0 1 93.168-134.737l5.663 14.965a127.988 127.988 0 1 0 135.52 210.351l11.3 11.328a143.042 143.042 0 0 1 -101.651 42.093z" fill="#e84700"/><circle cx="144" cy="304" fill="#58ba19" r="104"/><path d="m136 408h16v96h-16z" fill="#c93c05"/><path d="m96 496h96v16h-96z" fill="#e84700"/><g fill="#f4bb03"><path d="m96 280 24 32v40h-32v-32l-48-16a103.914 103.914 0 0 1 48.18-87.77l31.82 39.77z"/><path d="m248 304a103.689 103.689 0 0 1 -1.12 15.25l-22.88-15.25-32 32-24-16 16-32-24-32 24-48h.07a104.021 104.021 0 0 1 63.93 96z"/><path d="m160 352-16 16 24 16 16-16z"/></g><path d="m280 288h16v56h-16z" fill="#398409"/><path d="m144 200a103.995 103.995 0 0 0 -73.916 177.153c-9.69-105.927 74.069-155.723 108.025-171.423a103.835 103.835 0 0 0 -34.109-5.73z" fill="#fcfbfa" opacity=".2"/><circle cx="340" cy="124" fill="#472020" r="12"/><circle cx="404" cy="124" fill="#472020" r="12"/></svg>