<svg id="Filled" height="512" viewBox="0 0 512 512" width="512" xmlns="http://www.w3.org/2000/svg"><g><path d="m104 288s0 40-24 72h40l56-64z" fill="#fdbf67"/><path d="m408 288s0 40 24 72h-40l-56-64z" fill="#fdbf67"/><path d="m120 342v74h48v72h176v-72h48v-74a30 30 0 0 0 -30-30h-212a30 30 0 0 0 -30 30z" fill="#4d4d4d"/><path d="m160 312 96 120 96-120z" fill="#e6e6e6"/><path d="m120 416h48a0 0 0 0 1 0 0v56a0 0 0 0 1 0 0h-8a40 40 0 0 1 -40-40v-16a0 0 0 0 1 0 0z" fill="#ffd4cf"/><path d="m384 416h8a0 0 0 0 1 0 0v56a0 0 0 0 1 0 0h-48a0 0 0 0 1 0 0v-16a40 40 0 0 1 40-40z" fill="#ffd4cf" transform="matrix(-1 0 0 -1 736 888)"/><path d="m412.915 74.09a72.023 72.023 0 0 0 -112.915-36.08 72.014 72.014 0 0 0 -88 0 72.023 72.023 0 0 0 -112.915 36.08 72.011 72.011 0 1 0 89.83 89.83 71.777 71.777 0 0 0 23.085-11.92 72.014 72.014 0 0 0 88 0 71.777 71.777 0 0 0 23.085 11.92 72.011 72.011 0 1 0 89.83-89.83z" fill="#fdbf67"/><path d="m393.507 151.6c-67-3.785-137.507-55.6-137.507-55.6s-70.507 51.815-137.507 55.6c-19.18 23.338-30.493 53.284-30.493 88.4v12a60 60 0 0 0 60 60h216a60 60 0 0 0 60-60v-12c0-35.116-11.313-65.062-30.493-88.4z" fill="#ffd4cf"/><path d="m102.354 212a44 44 0 1 0 -36.708 0 44 44 0 1 0 36.708 0z" fill="#fdbf67"/><path d="m446.354 212a44 44 0 1 0 -36.708 0 44 44 0 1 0 36.708 0z" fill="#fdbf67"/><path d="m312 408-56 24-56-24 24-96h64z" fill="#949494"/><path d="m224 440 24-128h16l24 128-32 24z" fill="#e9e9e9"/><g><path d="m192 176a41.832 41.832 0 0 0 -34.438 18.248l-7.905-7.905-11.314 11.314 16 16a8 8 0 0 0 13.4-3.663c2.645-10.258 13.071-17.994 24.257-17.994a24.028 24.028 0 0 1 24 24h16a40.045 40.045 0 0 0 -40-40z"/><path d="m362.343 186.343-7.905 7.905a41.832 41.832 0 0 0 -34.438-18.248 40.045 40.045 0 0 0 -40 40h16a24.028 24.028 0 0 1 24-24c11.186 0 21.612 7.736 24.253 17.994a8 8 0 0 0 13.4 3.663l16-16z"/><path d="m256 256a16.019 16.019 0 0 1 -16-16h-16a32 32 0 0 0 64 0h-16a16.019 16.019 0 0 1 -16 16z"/><path d="m461.2 212.011a51.955 51.955 0 0 0 10.789-67.711q.011-.646.011-1.291a79.32 79.32 0 0 0 -16.066-48.099 80.762 80.762 0 0 0 -36.7-27.143 80.77 80.77 0 0 0 -27.143-36.7 80.047 80.047 0 0 0 -92.091-2.89 80.075 80.075 0 0 0 -88 0 80.175 80.175 0 0 0 -70.666-8.618l5.332 15.086a64.121 64.121 0 0 1 60.44 9.694 8 8 0 0 0 9.788 0 64.012 64.012 0 0 1 78.212 0 8 8 0 0 0 9.788 0 63.37 63.37 0 0 1 39.106-13.334 64.439 64.439 0 0 1 61.259 45.405 8 8 0 0 0 5.336 5.336 64.5 64.5 0 0 1 43.316 45.181 51.949 51.949 0 0 0 -68.925 15.883c-61.1-7.359-123.61-52.787-124.249-53.256a8 8 0 0 0 -9.472 0c-.64.469-63.15 45.9-124.25 53.259a51.95 51.95 0 0 0 -68.926-15.884 64.5 64.5 0 0 1 43.316-45.181 8 8 0 0 0 5.336-5.336 64.238 64.238 0 0 1 25.709-34.634l-8.9-13.3a80.351 80.351 0 0 0 -30.79 39.29 80.762 80.762 0 0 0 -36.694 27.142 79.32 79.32 0 0 0 -16.066 48.095q0 .644.011 1.291a52 52 0 0 0 10.763 67.733 52 52 0 0 0 43.764 90.9c-2.159 13.51-7.538 34.41-20.938 52.271a8 8 0 0 0 6.4 12.8h32v64a48.053 48.053 0 0 0 48 48v8a8 8 0 0 0 8 8h176a8 8 0 0 0 8-8v-8a48.053 48.053 0 0 0 48-48v-32h-16v8h-32v-4.71a57.6 57.6 0 0 0 16-40v-3.29h-16v3.289a41.721 41.721 0 0 1 -12.3 29.7l-1.355 1.356a8 8 0 0 0 -2.345 5.655v80h-160v-80a8 8 0 0 0 -2.343-5.657l-1.355-1.356a41.721 41.721 0 0 1 -12.3-29.7v-3.287h-16.002v3.289a57.6 57.6 0 0 0 16 40v4.711h-32v-66a22.025 22.025 0 0 1 22-22h6.155l43.885 54.857-7.8 31.2a8 8 0 0 0 4.61 9.294l21.875 9.374-2.587 13.8a8 8 0 0 0 3.062 7.875l32 24a8 8 0 0 0 9.6 0l32-24a8 8 0 0 0 3.063-7.875l-2.587-13.8 21.875-9.374a8 8 0 0 0 4.61-9.294l-7.8-31.2 43.884-54.857h6.155a22.025 22.025 0 0 1 22 22v42h16v-16h32a8 8 0 0 0 6.4-12.8c-13.427-17.9-18.8-38.754-20.95-52.276a51.986 51.986 0 0 0 43.75-90.913zm-77.2 219.989a32.036 32.036 0 0 1 -32 32v-40h32zm44-296a36 36 0 0 1 17.971 67.2 52.048 52.048 0 0 0 -35.945 0 36.006 36.006 0 0 1 17.974-67.2zm-380 36a36 36 0 1 1 53.971 31.2 52.048 52.048 0 0 0 -35.945 0 35.84 35.84 0 0 1 -18.026-31.2zm0 80a36 36 0 1 1 36 36 36.04 36.04 0 0 1 -36-36zm46.7 100a140.416 140.416 0 0 0 15.186-43.688 68.055 68.055 0 0 0 13.149 6.936 37.877 37.877 0 0 0 -11.035 26.752v10zm65.3 72v40a32.036 32.036 0 0 1 -32-32v-8zm16.645-104h37.109l-8.835 35.342zm32.768 83.33 20.833-83.33h8.114l-16.615 88.615zm46.587 50.67-23.221-17.415 21.861-116.585h2.72l21.861 116.585zm34.255-45.385-16.615-88.615h8.114l20.833 83.33zm16.826-53.273-8.835-35.342h37.109zm-159.081-51.342a52.042 52.042 0 0 1 -32.015-11.027 51.942 51.942 0 0 0 1.229-80.954 52.046 52.046 0 0 0 16.871-54.019c54.152-8.158 106.162-41.413 121.915-52.214 15.754 10.8 67.764 44.057 121.915 52.213a52.083 52.083 0 0 0 16.858 54.032 51.941 51.941 0 0 0 1.247 80.946 51.912 51.912 0 0 1 -32.02 11.023zm252 48v-10a37.878 37.878 0 0 0 -11.028-26.741 67.831 67.831 0 0 0 13.17-6.955 142.677 142.677 0 0 0 15.175 43.696zm28-64a36 36 0 1 1 36-36 36.04 36.04 0 0 1 -36 36z"/></g><g><path d="m192 176a41.832 41.832 0 0 0 -34.438 18.248l-7.905-7.905-11.314 11.314 16 16a8 8 0 0 0 13.4-3.663c2.645-10.258 13.071-17.994 24.257-17.994a24.028 24.028 0 0 1 24 24h16a40.045 40.045 0 0 0 -40-40z"/><path d="m362.343 186.343-7.905 7.905a41.832 41.832 0 0 0 -34.438-18.248 40.045 40.045 0 0 0 -40 40h16a24.028 24.028 0 0 1 24-24c11.186 0 21.612 7.736 24.253 17.994a8 8 0 0 0 13.4 3.663l16-16z"/><path d="m256 256a16.019 16.019 0 0 1 -16-16h-16a32 32 0 0 0 64 0h-16a16.019 16.019 0 0 1 -16 16z"/><path d="m461.2 212.011a51.955 51.955 0 0 0 10.789-67.711q.011-.646.011-1.291a79.32 79.32 0 0 0 -16.066-48.099 80.762 80.762 0 0 0 -36.7-27.143 80.77 80.77 0 0 0 -27.143-36.7 80.047 80.047 0 0 0 -92.091-2.89 80.075 80.075 0 0 0 -88 0 80.175 80.175 0 0 0 -70.666-8.618l5.332 15.086a64.121 64.121 0 0 1 60.44 9.694 8 8 0 0 0 9.788 0 64.012 64.012 0 0 1 78.212 0 8 8 0 0 0 9.788 0 63.37 63.37 0 0 1 39.106-13.334 64.439 64.439 0 0 1 61.259 45.405 8 8 0 0 0 5.336 5.336 64.5 64.5 0 0 1 43.316 45.181 51.949 51.949 0 0 0 -68.925 15.883c-61.1-7.359-123.61-52.787-124.249-53.256a8 8 0 0 0 -9.472 0c-.64.469-63.15 45.9-124.25 53.259a51.95 51.95 0 0 0 -68.926-15.884 64.5 64.5 0 0 1 43.316-45.181 8 8 0 0 0 5.336-5.336 64.238 64.238 0 0 1 25.709-34.634l-8.9-13.3a80.351 80.351 0 0 0 -30.79 39.29 80.762 80.762 0 0 0 -36.694 27.142 79.32 79.32 0 0 0 -16.066 48.095q0 .644.011 1.291a52 52 0 0 0 10.763 67.733 52 52 0 0 0 43.764 90.9c-2.159 13.51-7.538 34.41-20.938 52.271a8 8 0 0 0 6.4 12.8h32v64a48.053 48.053 0 0 0 48 48v8a8 8 0 0 0 8 8h176a8 8 0 0 0 8-8v-8a48.053 48.053 0 0 0 48-48v-32h-16v8h-32v-4.71a57.6 57.6 0 0 0 16-40v-3.29h-16v3.289a41.721 41.721 0 0 1 -12.3 29.7l-1.355 1.356a8 8 0 0 0 -2.345 5.655v80h-160v-80a8 8 0 0 0 -2.343-5.657l-1.355-1.356a41.721 41.721 0 0 1 -12.3-29.7v-3.287h-16.002v3.289a57.6 57.6 0 0 0 16 40v4.711h-32v-66a22.025 22.025 0 0 1 22-22h6.155l43.885 54.857-7.8 31.2a8 8 0 0 0 4.61 9.294l21.875 9.374-2.587 13.8a8 8 0 0 0 3.062 7.875l32 24a8 8 0 0 0 9.6 0l32-24a8 8 0 0 0 3.063-7.875l-2.587-13.8 21.875-9.374a8 8 0 0 0 4.61-9.294l-7.8-31.2 43.884-54.857h6.155a22.025 22.025 0 0 1 22 22v42h16v-16h32a8 8 0 0 0 6.4-12.8c-13.427-17.9-18.8-38.754-20.95-52.276a51.986 51.986 0 0 0 43.75-90.913zm-77.2 219.989a32.036 32.036 0 0 1 -32 32v-40h32zm44-296a36 36 0 0 1 17.971 67.2 52.048 52.048 0 0 0 -35.945 0 36.006 36.006 0 0 1 17.974-67.2zm-380 36a36 36 0 1 1 53.971 31.2 52.048 52.048 0 0 0 -35.945 0 35.84 35.84 0 0 1 -18.026-31.2zm0 80a36 36 0 1 1 36 36 36.04 36.04 0 0 1 -36-36zm46.7 100a140.416 140.416 0 0 0 15.186-43.688 68.055 68.055 0 0 0 13.149 6.936 37.877 37.877 0 0 0 -11.035 26.752v10zm65.3 72v40a32.036 32.036 0 0 1 -32-32v-8zm16.645-104h37.109l-8.835 35.342zm32.768 83.33 20.833-83.33h8.114l-16.615 88.615zm46.587 50.67-23.221-17.415 21.861-116.585h2.72l21.861 116.585zm34.255-45.385-16.615-88.615h8.114l20.833 83.33zm16.826-53.273-8.835-35.342h37.109zm-159.081-51.342a52.042 52.042 0 0 1 -32.015-11.027 51.942 51.942 0 0 0 1.229-80.954 52.046 52.046 0 0 0 16.871-54.019c54.152-8.158 106.162-41.413 121.915-52.214 15.754 10.8 67.764 44.057 121.915 52.213a52.083 52.083 0 0 0 16.858 54.032 51.941 51.941 0 0 0 1.247 80.946 51.912 51.912 0 0 1 -32.02 11.023zm252 48v-10a37.878 37.878 0 0 0 -11.028-26.741 67.831 67.831 0 0 0 13.17-6.955 142.677 142.677 0 0 0 15.175 43.696zm28-64a36 36 0 1 1 36-36 36.04 36.04 0 0 1 -36 36z"/></g></g></svg>